<?xml version="1.0" encoding="UTF-8" standalone="no"?><!DOCTYPE svg PUBLIC "-//W3C//DTD SVG 1.1//EN" "http://www.w3.org/Graphics/SVG/1.1/DTD/svg11.dtd"><svg width="100%" height="100%" viewBox="0 0 100 100" version="1.1" xmlns="http://www.w3.org/2000/svg" xmlns:xlink="http://www.w3.org/1999/xlink" xml:space="preserve" xmlns:serif="http://www.serif.com/" style="fill-rule:evenodd;clip-rule:evenodd;stroke-linejoin:round;stroke-miterlimit:2;"><path d="M0,100l7.029,-25.679c-4.337,-7.517 -6.617,-16.038 -6.612,-24.775c0.012,-27.317 22.241,-49.546 49.554,-49.546c13.254,0.004 25.696,5.167 35.054,14.533c9.354,9.367 14.504,21.817 14.5,35.059c-0.012,27.321 -22.242,49.55 -49.554,49.55c-8.292,-0.005 -16.463,-2.084 -23.7,-6.034l-26.271,6.892Zm27.488,-11.696c6.983,4.146 13.458,6.629 22.275,6.634c22.7,-0 45.55,-22.225 45.562,-44.938c0.008,-22.758 -22.787,-45.792 -45.563,-45.8c-22.716,0 -45.137,23.092 -45.145,45.8c-0.004,9.271 2.712,15.763 7.275,23.025l-4.163,19.367l19.759,-4.088Zm47.445,-26.933c-0.308,-0.517 -1.133,-0.825 -2.375,-1.446c-1.237,-0.621 -7.325,-3.617 -8.462,-4.029c-1.133,-0.413 -1.958,-0.621 -2.788,0.621c-0.825,1.237 -3.2,4.029 -3.92,4.854c-0.721,0.825 -1.446,0.929 -2.684,0.308c-1.237,-0.621 -5.229,-1.925 -9.958,-6.146c-3.679,-3.283 -6.167,-7.337 -6.888,-8.579c-0.721,-1.237 -0.075,-1.908 0.542,-2.525c0.558,-0.554 1.238,-1.446 1.858,-2.171c0.63,-0.716 0.834,-1.233 1.25,-2.062c0.413,-0.825 0.209,-1.55 -0.104,-2.171c-0.312,-0.617 -2.787,-6.713 -3.816,-9.192c-1.009,-2.412 -2.03,-2.087 -2.788,-2.125l-2.375,-0.041c-0.825,-0 -2.167,0.308 -3.3,1.55c-1.133,1.241 -4.333,4.233 -4.333,10.329c-0,6.096 4.437,11.983 5.054,12.808c0.621,0.825 8.729,13.333 21.15,18.696c2.954,1.275 5.262,2.037 7.058,2.608c2.967,0.942 5.667,0.809 7.8,0.492c2.379,-0.354 7.325,-2.996 8.358,-5.888c1.034,-2.895 1.034,-5.375 0.721,-5.891Z" style="fill-rule:nonzero;"/></svg>