<?xml version="1.0" encoding="UTF-8" standalone="no"?><!DOCTYPE svg PUBLIC "-//W3C//DTD SVG 1.1//EN" "http://www.w3.org/Graphics/SVG/1.1/DTD/svg11.dtd"><svg width="100%" height="100%" viewBox="0 0 6946 6946" version="1.1" xmlns="http://www.w3.org/2000/svg" xmlns:xlink="http://www.w3.org/1999/xlink" xml:space="preserve" xmlns:serif="http://www.serif.com/" style="fill-rule:evenodd;clip-rule:evenodd;stroke-linejoin:round;stroke-miterlimit:2;"><path d="M6944.46,0l-6944.46,0l0,6944.46l6944.46,0l0,-6944.46Zm-6840.29,104.167l-0,6736.12l6736.12,-0l-0,-6736.12l-6736.12,-0Z" style="fill:#fff;stroke:#fff;stroke-width:4.17px;"/><path d="M1833.82,2005.21l-0,113.379c-0,167.57 -55.521,310.779 -166.554,429.625c-111.038,118.846 -245.204,178.266 -402.505,178.266c-158.141,0 -292.308,-59.191 -402.504,-177.583c-111.033,-119.304 -166.55,-262.738 -166.55,-430.308l0,-848.313c0,-167.571 55.517,-310.779 166.55,-429.625c111.038,-118.846 245.205,-178.267 402.505,-178.267c158.983,0 293.15,59.65 402.504,178.95c111.033,120.213 166.554,263.192 166.554,428.942l-0,12.292l-201.883,99.721l-0,-116.113c-0,-108.371 -36.171,-201.262 -108.513,-278.675c-72.342,-77.408 -158.562,-116.112 -258.662,-116.112c-101.784,-0 -188.425,38.475 -259.925,115.429c-71.5,76.954 -107.25,170.075 -107.25,279.358l-0,856.513c-0,108.375 35.75,201.266 107.25,278.675c71.5,77.408 158.141,116.112 259.925,116.112c100.1,0 186.32,-38.704 258.662,-116.112c72.342,-76.5 108.513,-169.392 108.513,-278.675l-0,-16.392l201.883,-101.088Z" style="fill:#fff;fill-rule:nonzero;stroke:#fff;stroke-width:4.17px;"/><path d="M3284.85,1270.28l0,848.313c0,167.57 -55.517,310.779 -166.554,429.625c-111.033,118.846 -245.2,178.266 -402.5,178.266c-158.142,0 -292.313,-59.191 -402.504,-177.583c-111.038,-119.304 -166.554,-262.738 -166.554,-430.308l-0,-848.313c-0,-167.571 55.516,-310.779 166.554,-429.625c111.033,-118.846 245.2,-178.267 402.504,-178.267c157.3,0 291.467,59.421 402.5,178.267c111.037,118.846 166.554,262.054 166.554,429.625Zm-936.229,-4.1l-0,856.513c-0,108.375 35.75,201.266 107.25,278.675c71.5,77.408 158.142,116.112 259.925,116.112c100.1,0 186.321,-38.704 258.658,-116.112c71.5,-76.5 107.671,-169.392 108.513,-278.675l-0,-856.513c-0.842,-109.283 -37.013,-202.175 -108.513,-278.675c-72.337,-77.408 -158.558,-116.112 -258.658,-116.112c-101.784,-0 -188.425,38.475 -259.925,115.429c-71.5,76.954 -107.25,170.075 -107.25,279.358Z" style="fill:#fff;fill-rule:nonzero;stroke:#fff;stroke-width:4.17px;"/><path d="M3798.39,898.713l-0,1591.44l369.7,0c99.258,0 185.479,-38.704 258.662,-116.112c72.342,-76.5 108.508,-169.392 108.508,-278.675l0,-803.238c0,-108.37 -36.166,-201.262 -108.508,-278.67c-72.342,-77.413 -158.563,-116.117 -258.662,-116.117l-369.7,1.367Zm369.7,1800.45l-571.58,-0l0,-1915.2l201.88,-95.621l369.7,-0c157.3,-0 291.466,59.421 402.504,178.266c111.033,118.85 166.55,262.055 166.55,429.625l-0,795.038c-0,167.571 -55.517,310.779 -166.55,429.625c-111.038,118.846 -245.204,178.267 -402.504,178.267Z" style="fill:#fff;fill-rule:nonzero;stroke:#fff;stroke-width:4.17px;"/><path d="M5351.62,1804.4l0,676.192l898.379,-0l-88.325,218.567l-1011.93,-0l-0,-1915.2l201.879,-95.621l734.35,1.366l-88.325,218.567l-646.025,0l-0,677.558l734.35,0l-88.325,218.571l-646.025,0Z" style="fill:#fff;fill-rule:nonzero;stroke:#fff;stroke-width:4.17px;"/><path d="M1258.66,5009.62c162.992,20.033 296.313,84.696 399.959,193.979c110.333,116.567 165.5,259.546 165.5,428.938l-0,4.1c-0,173.029 -54.33,318.287 -162.992,435.766c-109.496,118.392 -242.817,177.588 -399.958,177.588c-158.813,-0 -292.134,-59.196 -399.959,-177.588c-110.333,-122.033 -165.5,-265.466 -165.5,-430.304l0,-17.758l200.605,-95.625l-0,117.483c-0,109.283 35.941,202.175 107.824,278.671c71.888,77.412 157.563,116.117 257.03,116.117c101.137,-0 187.233,-38.705 258.279,-116.117c71.05,-78.321 106.575,-171.667 106.575,-280.038c-0,-113.837 -34.271,-206.275 -102.813,-277.308c-78.571,-81.054 -164.246,-125.221 -257.025,-132.508c-158.816,-13.659 -283.358,-69.667 -373.633,-168.025c-93.612,-101.088 -140.421,-223.121 -140.421,-366.1c0,-143.888 45.971,-265.467 137.917,-364.734c91.942,-100.179 203.112,-150.266 333.508,-150.266c132.063,-0 243.65,50.087 334.763,150.266c92.779,101.996 139.171,223.121 139.171,363.367l-0,13.663l-200.609,98.354l0,-107.917c-1.671,-84.696 -28.421,-154.821 -80.241,-210.371c-54.334,-58.287 -118.692,-87.429 -193.084,-87.429c-74.391,0 -137.5,28.233 -189.325,84.696c-53.496,59.196 -80.241,129.321 -80.241,210.371c-0,81.054 26.745,150.721 80.241,209.008c50.154,54.642 124.963,87.879 224.429,99.721Z" style="fill:#fff;fill-rule:nonzero;stroke:#fff;stroke-width:4.17px;"/><path d="M2136.31,5642.12l-0,-1360.58l200.608,-95.625l-0,1460.31c0.833,109.283 36.775,202.175 107.825,278.671c71.883,77.412 157.558,116.117 257.025,116.117c100.304,-0.001 186.4,-38.705 258.283,-116.117c71.046,-76.496 106.571,-168.021 106.571,-274.575l0,-1368.78l200.608,-95.625l0,1456.21c0,167.567 -55.166,310.775 -165.5,429.621c-110.337,118.846 -243.654,178.271 -399.962,178.271c-156.304,-0 -289.625,-59.425 -399.959,-178.271c-110.333,-118.846 -165.5,-262.054 -165.5,-429.621Z" style="fill:#fff;fill-rule:nonzero;stroke:#fff;stroke-width:4.17px;"/><path d="M3684.75,4213.21l1005.54,0l-87.762,218.567l-358.588,0l0,1572.33l446.35,0l-87.762,218.567l-1005.54,-0l87.767,-218.567l358.583,0l0,-1572.33l-446.35,0l87.767,-218.567Z" style="fill:#fff;fill-rule:nonzero;stroke:#fff;stroke-width:4.17px;"/><path d="M5485.17,6250l-0,-1818.21l-564.204,-0.001l87.762,-218.566l1241.25,-0l-87.766,218.566l-476.438,0.001l0,1722.59l-200.608,95.625Z" style="fill:#fff;fill-rule:nonzero;stroke:#fff;stroke-width:4.17px;"/><path d="M695.708,3456.19l5554.29,-0" style="fill:none;stroke:#fff;stroke-width:78.13px;stroke-linejoin:miter;stroke-miterlimit:1;"/></svg>