<?xml version="1.0" encoding="UTF-8" standalone="no"?><!DOCTYPE svg PUBLIC "-//W3C//DTD SVG 1.1//EN" "http://www.w3.org/Graphics/SVG/1.1/DTD/svg11.dtd"><svg width="100%" height="100%" viewBox="0 0 1667 1667" version="1.1" xmlns="http://www.w3.org/2000/svg" xmlns:xlink="http://www.w3.org/1999/xlink" xml:space="preserve" xmlns:serif="http://www.serif.com/" style="fill-rule:evenodd;clip-rule:evenodd;stroke-miterlimit:1;"><path d="M1666.67,0l-1666.67,0l0,1666.67l1666.67,-0l-0,-1666.67Zm-1641.67,25l0,1616.67l1616.67,-0l-0,-1616.67l-1616.67,0Z"/><path d="M440.117,481.251l-0,27.211c-0,40.217 -13.325,74.587 -39.973,103.11c-26.649,28.523 -58.849,42.784 -96.601,42.784c-37.954,0 -70.154,-14.206 -96.601,-42.62c-26.648,-28.633 -39.972,-63.057 -39.972,-103.274l-0,-203.595c-0,-40.217 13.324,-74.587 39.972,-103.11c26.649,-28.523 58.849,-42.784 96.601,-42.784c38.156,-0 70.356,14.316 96.601,42.948c26.648,28.851 39.973,63.166 39.973,102.946l-0,2.95l-48.452,23.933l-0,-27.867c-0,-26.009 -8.681,-48.303 -26.043,-66.882c-17.362,-18.578 -38.055,-27.867 -62.079,-27.867c-24.428,-0 -45.222,9.234 -62.382,27.703c-17.16,18.469 -25.74,40.818 -25.74,67.046l0,205.563c0,26.01 8.58,48.304 25.74,66.882c17.16,18.578 37.954,27.867 62.382,27.867c24.024,0 44.717,-9.289 62.079,-27.867c17.362,-18.36 26.043,-40.654 26.043,-66.882l-0,-3.934l48.452,-24.261Z" style="fill-rule:nonzero;"/><path d="M788.364,304.867l0,203.595c0,40.217 -13.324,74.587 -39.973,103.11c-26.648,28.523 -58.848,42.784 -96.6,42.784c-37.954,0 -70.155,-14.206 -96.601,-42.62c-26.649,-28.633 -39.973,-63.057 -39.973,-103.274l-0,-203.595c-0,-40.217 13.324,-74.587 39.973,-103.11c26.648,-28.523 58.848,-42.784 96.601,-42.784c37.752,-0 69.952,14.261 96.6,42.784c26.649,28.523 39.973,62.893 39.973,103.11Zm-224.695,-0.984l-0,205.563c-0,26.01 8.58,48.304 25.74,66.882c17.16,18.578 37.954,27.867 62.382,27.867c24.024,0 44.717,-9.289 62.078,-27.867c17.16,-18.36 25.841,-40.654 26.043,-66.882l0,-205.563c-0.202,-26.228 -8.883,-48.522 -26.043,-66.882c-17.361,-18.578 -38.054,-27.867 -62.078,-27.867c-24.428,-0 -45.222,9.234 -62.382,27.703c-17.16,18.469 -25.74,40.818 -25.74,67.046Z" style="fill-rule:nonzero;"/><path d="M911.613,215.691l0,381.947l88.728,0c23.822,0 44.515,-9.289 62.079,-27.867c17.362,-18.36 26.042,-40.654 26.042,-66.882l0,-192.777c0,-26.009 -8.68,-48.303 -26.042,-66.881c-17.362,-18.579 -38.055,-27.868 -62.079,-27.868l-88.728,0.328Zm88.728,432.108l-137.179,0l-0,-459.648l48.451,-22.949l88.728,-0c37.752,-0 69.952,14.261 96.601,42.784c26.648,28.524 39.972,62.893 39.972,103.11l0,190.809c0,40.217 -13.324,74.587 -39.972,103.11c-26.649,28.523 -58.849,42.784 -96.601,42.784Z" style="fill-rule:nonzero;"/><path d="M1284.39,433.057l0,162.286l215.611,0l-21.198,52.456l-242.864,0l-0,-459.648l48.451,-22.949l176.244,0.328l-21.198,52.456l-155.046,-0l0,162.614l176.244,0l-21.198,52.457l-155.046,-0Z" style="fill-rule:nonzero;"/><path d="M302.078,1202.31c39.118,4.808 71.115,20.327 95.99,46.555c26.48,27.976 39.72,62.291 39.72,102.945l0,0.984c0,41.527 -13.039,76.389 -39.118,104.584c-26.279,28.414 -58.276,42.621 -95.99,42.621c-38.115,0 -70.112,-14.207 -95.99,-42.621c-26.48,-29.288 -39.72,-63.712 -39.72,-103.273l-0,-4.262l48.145,-22.95l0,28.196c0,26.228 8.626,48.522 25.878,66.881c17.253,18.579 37.815,27.868 61.687,27.868c24.273,-0 44.936,-9.289 61.987,-27.868c17.052,-18.797 25.578,-41.2 25.578,-67.209c-0,-27.321 -8.225,-49.506 -24.675,-66.554c-18.857,-19.453 -39.419,-30.053 -61.686,-31.802c-38.116,-3.278 -68.006,-16.72 -89.672,-40.326c-22.467,-24.261 -33.701,-53.549 -33.701,-87.864c-0,-34.533 11.033,-63.712 33.1,-87.536c22.066,-24.043 48.747,-36.064 80.042,-36.064c31.695,0 58.476,12.021 80.343,36.064c22.267,24.479 33.401,53.549 33.401,87.208l-0,3.279l-48.146,23.605l-0,-25.9c-0.401,-20.327 -6.821,-37.157 -19.258,-50.489c-13.04,-13.989 -28.486,-20.983 -46.34,-20.983c-17.854,0 -33,6.776 -45.438,20.327c-12.839,14.207 -19.258,31.037 -19.258,50.489c0,19.453 6.419,36.173 19.258,50.162c12.037,13.114 29.991,21.091 53.863,23.933Z" style="fill-rule:nonzero;"/><path d="M512.715,1354.11l-0,-326.54l48.146,-22.95l-0,350.474c0.2,26.228 8.826,48.522 25.878,66.881c17.252,18.579 37.814,27.868 61.686,27.868c24.073,-0 44.736,-9.289 61.988,-27.868c17.051,-18.359 25.577,-40.325 25.577,-65.898l0,-328.507l48.146,-22.95l-0,349.49c-0,40.216 -13.24,74.586 -39.72,103.109c-26.481,28.523 -58.477,42.785 -95.991,42.785c-37.513,0 -69.51,-14.262 -95.99,-42.785c-26.48,-28.523 -39.72,-62.893 -39.72,-103.109Z" style="fill-rule:nonzero;"/><path d="M884.339,1011.17l241.329,0l-21.063,52.456l-86.061,0l0,377.358l107.124,-0l-21.063,52.456l-241.33,-0l21.064,-52.456l86.06,-0l-0,-377.358l-107.124,0l21.064,-52.456Z" style="fill-rule:nonzero;"/><path d="M1316.44,1500l0,-436.371l-135.409,0l21.063,-52.456l297.901,0l-21.064,52.456l-114.345,0l-0,413.421l-48.146,22.95Z" style="fill-rule:nonzero;"/><path d="M166.97,829.486l1333.03,0" style="fill:none;stroke:#000;stroke-width:18.75px;"/></svg>