<?xml version="1.0" encoding="UTF-8" standalone="no"?><!DOCTYPE svg PUBLIC "-//W3C//DTD SVG 1.1//EN" "http://www.w3.org/Graphics/SVG/1.1/DTD/svg11.dtd"><svg width="100%" height="100%" viewBox="0 0 100 100" version="1.1" xmlns="http://www.w3.org/2000/svg" xmlns:xlink="http://www.w3.org/1999/xlink" xml:space="preserve" xmlns:serif="http://www.serif.com/" style="fill-rule:evenodd;clip-rule:evenodd;stroke-linejoin:round;stroke-miterlimit:2;"><path d="M50,36.108c-7.658,0 -13.887,6.234 -13.887,13.892c-0,7.658 6.229,13.888 13.887,13.888c7.658,-0 13.888,-6.23 13.888,-13.888c-0,-7.658 -6.23,-13.892 -13.888,-13.892m0,31.946c-9.958,0 -18.054,-8.096 -18.054,-18.054c-0,-9.958 8.096,-18.058 18.054,-18.058c9.958,-0 18.054,8.1 18.054,18.058c0,9.958 -8.096,18.054 -18.054,18.054m-4.971,27.779l9.942,0c1.579,-4.6 2.783,-10.212 8.779,-12.708c6.233,-2.571 11.108,0.817 15.146,2.8l7.025,-7.033c-2.117,-4.363 -5.275,-9.163 -2.788,-15.171c2.363,-5.704 7.246,-6.929 12.7,-8.746l0,-9.95c-5.145,-1.754 -10.296,-2.95 -12.696,-8.742c-2.383,-5.75 0.238,-9.979 2.788,-15.179l-7.029,-7.025c-4.654,2.279 -9.254,5.238 -15.175,2.784c-5.725,-2.38 -6.9,-7.225 -8.75,-12.696l-9.942,-0c-1.767,5.129 -2.933,10.283 -8.746,12.691c-1.521,0.638 -2.991,0.942 -4.487,0.942c-3.513,0 -6.413,-1.633 -10.692,-3.721l-7.029,7.025c2.392,4.896 5.212,9.321 2.787,15.179c-2.379,5.73 -7.225,6.892 -12.695,8.742l-0,9.95c5.108,1.742 10.283,2.938 12.695,8.742c2.421,5.846 -0.312,10.133 -2.787,15.179l7.029,7.029c6.042,-3.021 9.813,-5.017 15.175,-2.787c5.742,2.383 6.896,7.241 8.75,12.695m12.892,4.167l-15.846,0c-2.838,-7.992 -3.271,-11.304 -7.387,-13.012c-4.188,-1.746 -7.213,0.55 -14.442,3.966l-11.204,-11.204c3.637,-7.654 5.696,-10.271 3.971,-14.437c-1.717,-4.13 -4.967,-4.53 -13.013,-7.388l-0,-15.85c7.942,-2.825 11.3,-3.258 13.013,-7.387c1.712,-4.13 -0.296,-6.721 -3.971,-14.442l11.204,-11.2c7.254,3.45 10.275,5.687 14.437,3.971c4.134,-1.717 4.509,-4.938 7.396,-13.017l15.842,-0c2.841,7.992 3.283,11.308 7.391,13.012c4.171,1.734 7.121,-0.495 14.446,-3.966l11.196,11.2c-3.658,7.696 -5.671,10.321 -3.967,14.437c1.713,4.134 4.967,4.529 13.013,7.392l-0,15.854c-7.942,2.821 -11.304,3.259 -13.017,7.388c-1.679,4.062 0.184,6.504 3.975,14.433l-11.2,11.204c-7.2,-3.416 -10.279,-5.708 -14.4,-3.979c-4.116,1.708 -4.5,4.775 -7.437,13.025" style="fill:#fff;"/></svg>