<?xml version="1.0" encoding="UTF-8" standalone="no"?><!DOCTYPE svg PUBLIC "-//W3C//DTD SVG 1.1//EN" "http://www.w3.org/Graphics/SVG/1.1/DTD/svg11.dtd"><svg width="100%" height="100%" viewBox="0 0 337 632" version="1.1" xmlns="http://www.w3.org/2000/svg" xmlns:xlink="http://www.w3.org/1999/xlink" xml:space="preserve" xmlns:serif="http://www.serif.com/" style="fill-rule:evenodd;clip-rule:evenodd;stroke-linejoin:round;stroke-miterlimit:2;"><text x="-3.139px" y="31.044px" style="font-family:'Ebrima';font-size:60.667px;fill:#d7d7d7;">o<tspan x="36.1px 54.444px 72.788px 112.027px 130.371px 148.716px 187.954px 206.299px 224.643px 263.882px 282.226px 300.57px " y="31.044px 31.044px 31.044px 31.044px 31.044px 31.044px 31.044px 31.044px 31.044px 31.044px 31.044px 31.044px ">  o  o  o  o</tspan></text><text x="-3.139px" y="97.711px" style="font-family:'Ebrima';font-size:60.667px;fill:#d7d7d7;">o<tspan x="36.1px 54.444px 72.788px 112.027px 130.371px 148.716px 187.954px 206.299px 224.643px 263.882px 282.226px 300.57px " y="97.711px 97.711px 97.711px 97.711px 97.711px 97.711px 97.711px 97.711px 97.711px 97.711px 97.711px 97.711px ">  o  o  o  o</tspan></text><text x="-3.139px" y="164.378px" style="font-family:'Ebrima';font-size:60.667px;fill:#d7d7d7;">o<tspan x="36.1px 54.444px 72.788px 112.027px 130.371px 148.716px 187.954px 206.299px 224.643px 263.882px 282.226px 300.57px " y="164.378px 164.378px 164.378px 164.378px 164.378px 164.378px 164.378px 164.378px 164.378px 164.378px 164.378px 164.378px ">  o  o  o  o</tspan></text><text x="-3.139px" y="231.044px" style="font-family:'Ebrima';font-size:60.667px;fill:#d7d7d7;">o<tspan x="36.1px 54.444px 72.788px 112.027px 130.371px 148.716px 187.954px 206.299px 224.643px 263.882px 282.226px 300.57px " y="231.044px 231.044px 231.044px 231.044px 231.044px 231.044px 231.044px 231.044px 231.044px 231.044px 231.044px 231.044px ">  o  o  o  o</tspan></text><text x="-3.139px" y="297.711px" style="font-family:'Ebrima';font-size:60.667px;fill:#d7d7d7;">o<tspan x="36.1px 54.444px 72.788px 112.027px 130.371px 148.716px 187.954px 206.299px 224.643px 263.882px 282.226px 300.57px " y="297.711px 297.711px 297.711px 297.711px 297.711px 297.711px 297.711px 297.711px 297.711px 297.711px 297.711px 297.711px ">  o  o  o  o</tspan></text><text x="-3.139px" y="364.378px" style="font-family:'Ebrima';font-size:60.667px;fill:#d7d7d7;">o<tspan x="36.1px 54.444px 72.788px 112.027px 130.371px 148.716px 187.954px 206.299px 224.643px 263.882px 282.226px 300.57px " y="364.378px 364.378px 364.378px 364.378px 364.378px 364.378px 364.378px 364.378px 364.378px 364.378px 364.378px 364.378px ">  o  o  o  o</tspan></text><text x="-3.139px" y="431.044px" style="font-family:'Ebrima';font-size:60.667px;fill:#d7d7d7;">o<tspan x="36.1px 54.444px 72.788px 112.027px 130.371px 148.716px 187.954px 206.299px 224.643px 263.882px 282.226px 300.57px " y="431.044px 431.044px 431.044px 431.044px 431.044px 431.044px 431.044px 431.044px 431.044px 431.044px 431.044px 431.044px ">  o  o  o  o</tspan></text><text x="-3.139px" y="497.711px" style="font-family:'Ebrima';font-size:60.667px;fill:#d7d7d7;">o<tspan x="36.1px 54.444px 72.788px 112.027px 130.371px 148.716px 187.954px 206.299px 224.643px 263.882px 282.226px 300.57px " y="497.711px 497.711px 497.711px 497.711px 497.711px 497.711px 497.711px 497.711px 497.711px 497.711px 497.711px 497.711px ">  o  o  o  o</tspan></text><text x="-3.139px" y="564.378px" style="font-family:'Ebrima';font-size:60.667px;fill:#d7d7d7;">o<tspan x="36.1px 54.444px 72.788px 112.027px 130.371px 148.716px 187.954px 206.299px 224.643px 263.882px 282.226px 300.57px " y="564.378px 564.378px 564.378px 564.378px 564.378px 564.378px 564.378px 564.378px 564.378px 564.378px 564.378px 564.378px ">  o  o  o  o</tspan></text><text x="-3.139px" y="631.044px" style="font-family:'Ebrima';font-size:60.667px;fill:#d7d7d7;">o<tspan x="36.1px 54.444px 72.788px 112.027px 130.371px 148.716px 187.954px 206.299px 224.643px 263.882px 282.226px 300.57px " y="631.044px 631.044px 631.044px 631.044px 631.044px 631.044px 631.044px 631.044px 631.044px 631.044px 631.044px 631.044px ">  o  o  o  o</tspan></text></svg>