<?xml version="1.0" encoding="UTF-8" standalone="no"?><!DOCTYPE svg PUBLIC "-//W3C//DTD SVG 1.1//EN" "http://www.w3.org/Graphics/SVG/1.1/DTD/svg11.dtd"><svg width="100%" height="100%" viewBox="0 0 100 100" version="1.1" xmlns="http://www.w3.org/2000/svg" xmlns:xlink="http://www.w3.org/1999/xlink" xml:space="preserve" xmlns:serif="http://www.serif.com/" style="fill-rule:evenodd;clip-rule:evenodd;stroke-linejoin:round;stroke-miterlimit:2;"><path d="M50.083,0c27.559,0.046 49.917,22.429 49.917,50c0,27.596 -22.4,50 -50,50c-27.596,0 -50,-22.404 -50,-50c0,-27.571 22.363,-49.954 49.921,-50l0.162,0Zm15.392,66.667l-30.946,-0c2.663,17.775 9.342,29.166 15.471,29.166c6.133,0 12.813,-11.391 15.475,-29.166m27.229,-0l-23.012,-0c-1.775,12.437 -5.504,22.508 -10.354,28.212c15.287,-3.166 27.795,-13.958 33.366,-28.212m-62.391,-0l-23.017,-0c5.575,14.254 18.083,25.046 33.371,28.212c-4.85,-5.704 -8.579,-15.775 -10.354,-28.212m-0.513,-29.167l-23.9,0c-1.379,4.858 -3.087,14.121 0,25l23.9,0c-0.783,-7.558 -0.896,-16.354 0,-25m36.213,0l-32.021,0c-0.813,7.5 -0.938,16.363 -0,25l32.021,0c0.816,-7.546 0.933,-16.375 -0,-25m28.091,0l-23.9,0c0.259,2.467 1.284,12.579 0,25l23.9,0c3.088,-10.883 1.379,-20.146 0,-25m-53.437,-32.379c-15.288,3.166 -27.796,13.958 -33.371,28.212l23.017,0c1.775,-12.437 5.504,-22.512 10.354,-28.212m24.808,28.212c-2.662,-17.775 -9.342,-29.166 -15.475,-29.166c-6.129,-0 -12.808,11.391 -15.471,29.166l30.946,0Zm-6.137,-28.212c4.85,5.7 8.579,15.775 10.354,28.212l23.012,0c-5.571,-14.254 -18.079,-25.045 -33.366,-28.212" style="fill:#fff;"/></svg>