<?xml version="1.0" encoding="UTF-8" standalone="no"?><!DOCTYPE svg PUBLIC "-//W3C//DTD SVG 1.1//EN" "http://www.w3.org/Graphics/SVG/1.1/DTD/svg11.dtd"><svg width="100%" height="100%" viewBox="0 0 719 250" version="1.1" xmlns="http://www.w3.org/2000/svg" xmlns:xlink="http://www.w3.org/1999/xlink" xml:space="preserve" xmlns:serif="http://www.serif.com/" style="fill-rule:evenodd;clip-rule:evenodd;stroke-linejoin:round;stroke-miterlimit:2;"><path d="M28.05,152.288c0.497,-0.262 0.952,-0.459 1.365,-0.591c0.414,-0.131 0.869,-0.262 1.366,-0.394c2.813,-1.051 5.75,-1.937 8.812,-2.659c3.062,-0.723 6.164,-1.412 9.309,-2.069c0.165,-0.394 0.248,-0.985 0.248,-1.773c-0,-2.627 -0.414,-4.531 -1.241,-5.713c-0.331,-0.394 -0.662,-0.69 -0.993,-0.887c-0.331,-0.197 -0.993,-0.295 -1.986,-0.295c-2.151,-0 -4.51,0.853 -7.075,2.561c-2.565,1.707 -5.088,4.465 -7.571,8.274c-0.662,0.919 -1.406,2.102 -2.234,3.546Zm39.221,-10.047c2.482,-1.051 4.675,-2.2 6.578,-3.448c1.903,-1.248 4.013,-2.922 6.33,-5.024c0.662,-0.656 1.572,-1.313 2.73,-1.97c1.159,-0.656 2.483,-0.985 3.972,-0.985c1.655,0 2.938,0.23 3.848,0.69c0.91,0.459 1.613,0.985 2.11,1.576c0.496,0.591 0.786,1.149 0.869,1.674c0.082,0.526 0.124,0.854 0.124,0.985c-0,1.314 -0.497,2.496 -1.49,3.547c-2.151,2.232 -4.261,4.071 -6.33,5.516c-2.068,1.445 -4.178,2.725 -6.33,3.842c-2.151,1.116 -4.468,2.068 -6.95,2.856c-2.482,0.788 -5.213,1.576 -8.192,2.364c-1.324,2.758 -3.02,5.418 -5.088,7.979c-2.069,2.561 -4.51,4.893 -7.323,6.994c-2.814,2.101 -5.917,3.776 -9.309,5.024c-3.393,1.248 -7.075,1.871 -11.046,1.871c-1.49,0 -3.02,-0.098 -4.593,-0.295c-1.572,-0.197 -3.02,-0.558 -4.344,-1.084l-0.993,0.788c-0.662,0.394 -1.489,0.788 -2.482,1.182c-0.993,0.394 -2.151,0.591 -3.475,0.591c-2.979,0 -5.379,-0.722 -7.199,-2.167c-1.82,-1.576 -3.31,-3.644 -4.468,-6.205c-1.158,-2.562 -2.027,-5.254 -2.606,-8.078c-0.58,-2.824 -0.993,-5.615 -1.242,-8.373c-0.248,-2.758 -0.372,-5.188 -0.372,-7.289c0,-4.466 0.414,-9.654 1.241,-15.564c0.828,-5.91 1.986,-12.149 3.475,-18.716c1.49,-6.567 3.31,-13.199 5.462,-19.898c2.151,-6.698 4.592,-13.002 7.322,-18.913c2.731,-5.91 5.751,-11.229 9.061,-15.957c3.31,-4.729 6.868,-8.34 10.674,-10.836c1.489,-0.919 3.144,-1.839 4.964,-2.758c0.993,-0.394 2.193,-0.755 3.6,-1.084c1.406,-0.328 2.854,-0.492 4.344,-0.492c2.813,-0 5.047,0.394 6.702,1.182c1.655,0.788 2.979,1.839 3.972,3.152c0.662,1.051 1.075,2.102 1.241,3.152c0.165,1.051 0.248,1.97 0.248,2.758c0,3.021 -0.703,6.797 -2.11,11.328c-1.406,4.532 -3.268,9.424 -5.585,14.678c-2.317,5.253 -5.006,10.704 -8.068,16.351c-3.061,5.648 -6.123,11.131 -9.184,16.451c-3.062,5.319 -6.082,10.277 -9.061,14.874c-2.978,4.597 -5.626,8.406 -7.943,11.426c-0.993,0.789 -1.738,1.642 -2.234,2.562l-0.248,3.546c1.655,-2.233 3.806,-4.4 6.454,-6.502c2.482,-2.232 5.585,-4.367 9.308,-6.402c3.724,-2.036 7.985,-3.054 12.784,-3.054c4.138,0 7.53,0.525 10.178,1.576c2.648,1.051 4.716,2.364 6.206,3.94c1.489,1.576 2.565,3.317 3.227,5.221c0.662,1.904 1.075,3.71 1.241,5.418Zm-20.107,-87.275c-2.482,2.101 -4.84,4.892 -7.075,8.373c-2.234,3.48 -4.302,7.289 -6.205,11.426c-1.903,4.137 -3.6,8.537 -5.089,13.2c-1.489,4.662 -2.896,9.292 -4.22,13.889c2.482,-4.334 4.923,-8.734 7.323,-13.2c2.399,-4.465 4.633,-8.767 6.702,-12.904c2.069,-4.137 3.848,-8.012 5.337,-11.623c1.489,-3.612 2.565,-6.666 3.227,-9.161Zm-5.461,104.021c-2.151,0.656 -4.22,1.576 -6.206,2.758c-1.489,0.525 -2.565,1.182 -3.227,1.97c2.648,-0 5.544,-1.379 8.688,-4.137l0.745,-0.591Z" style="fill-rule:nonzero;"/><path d="M109.967,146.181c0.827,-0.394 1.903,-1.182 3.227,-2.364c1.324,-1.182 2.648,-2.463 3.971,-3.842c1.324,-1.379 2.524,-2.725 3.6,-4.039c1.075,-1.313 1.862,-2.298 2.358,-2.955c1.82,-2.101 3.517,-4.137 5.089,-6.107c1.572,-1.97 3.185,-3.743 4.84,-5.319c0.828,-0.92 1.614,-1.708 2.358,-2.364c0.745,-0.657 1.531,-1.314 2.359,-1.97c0.827,-0.526 1.903,-1.117 3.227,-1.774c1.324,-0.656 2.896,-0.985 4.716,-0.985c2.648,0 4.634,0.526 5.958,1.577c1.324,1.05 2.151,1.904 2.482,2.561c1.324,1.444 2.193,3.546 2.606,6.304c0.414,2.758 0.621,4.991 0.621,6.698c-0,6.699 -0.91,13.528 -2.731,20.489l7.447,-6.107c2.317,-2.233 4.51,-4.466 6.579,-6.698c2.068,-2.233 4.178,-4.466 6.329,-6.699c0.828,-0.656 1.821,-1.28 2.979,-1.871c1.159,-0.591 2.4,-0.887 3.724,-0.887c1.986,0 3.475,0.329 4.468,0.985c0.993,0.657 1.655,1.248 1.986,1.773c0.827,0.657 1.241,1.708 1.241,3.152c-0,0.394 -0.083,0.854 -0.248,1.38c-0.166,0.525 -0.497,1.05 -0.993,1.576c-5.461,5.647 -11.253,11.032 -17.377,16.154c-6.123,5.123 -12.328,10.179 -18.617,15.17l-2.73,1.97c-0.828,0.394 -1.407,0.854 -1.738,1.379c-0.166,0.263 -0.248,0.591 -0.248,0.985c-0,0.394 -0.083,0.723 -0.249,0.985c-0.331,0.92 -0.62,1.708 -0.868,2.364c-0.249,0.657 -0.373,1.117 -0.373,1.38c-2.647,7.486 -5.419,14.874 -8.315,22.163c-2.896,7.289 -6.496,14.546 -10.799,21.77c-0.992,1.838 -2.482,4.137 -4.468,6.895c-1.986,2.758 -4.385,5.451 -7.198,8.077c-2.317,2.627 -5.42,5.123 -9.309,7.487c-3.889,2.364 -8.481,3.546 -13.777,3.546c-5.792,-0 -10.012,-1.445 -12.66,-4.334c-2.648,-2.89 -3.972,-6.436 -3.972,-10.639c0,-4.859 1.697,-10.015 5.089,-15.465c3.393,-5.451 7.613,-10.803 12.66,-16.056c5.047,-5.254 10.426,-10.245 16.135,-14.973c5.709,-4.728 10.881,-8.8 15.515,-12.215l4.716,-3.94l1.738,-1.379c-0,-0.394 0.082,-0.788 0.248,-1.182c0.331,-0.525 0.538,-0.985 0.62,-1.379c0.083,-0.394 0.207,-0.722 0.373,-0.985c1.986,-5.648 3.806,-11.328 5.461,-17.041c1.655,-5.714 2.482,-11.328 2.482,-16.845c-0.993,1.051 -1.986,2.233 -2.979,3.546c-0.992,1.314 -2.151,2.693 -3.475,4.138c-1.489,1.707 -3.227,3.612 -5.213,5.713c-1.986,2.101 -4.137,4.006 -6.454,5.713c-2.317,1.708 -4.799,3.152 -7.447,4.334c-2.647,1.182 -5.544,1.774 -8.688,1.774c-3.31,-0 -5.999,-0.526 -8.067,-1.577c-2.069,-1.05 -3.517,-2.298 -4.344,-3.743c-0.993,-1.444 -1.655,-2.856 -1.986,-4.235c-0.331,-1.38 -0.497,-2.594 -0.497,-3.645c0,-1.314 0.29,-3.054 0.869,-5.221c0.579,-2.167 1.448,-4.367 2.607,-6.6c1.489,-2.364 3.475,-4.531 5.957,-6.501c2.482,-1.97 5.544,-2.955 9.185,-2.955c2.482,-0 4.716,0.624 6.702,1.871c1.986,1.248 2.979,2.726 2.979,4.433c-0,1.576 -0.662,2.857 -1.986,3.842c-1.324,0.985 -2.648,1.609 -3.972,1.871l0,-0.591c-1.324,1.182 -2.275,3.021 -2.854,5.517c-0.58,2.495 -0.869,4.465 -0.869,5.91Zm-17.377,87.472c0,0.525 0.083,1.084 0.249,1.675c0.165,0.591 0.496,1.215 0.993,1.871c0.496,0 1.158,-0.295 1.985,-0.886c0.828,-0.591 1.697,-1.248 2.607,-1.97c0.91,-0.723 1.738,-1.445 2.482,-2.167c0.745,-0.723 1.283,-1.215 1.614,-1.478c4.633,-5.648 8.481,-11.624 11.543,-17.928c3.061,-6.304 5.833,-12.674 8.315,-19.11c-3.64,3.415 -7.24,6.928 -10.798,10.54c-3.558,3.612 -6.743,7.158 -9.557,10.639c-2.813,3.48 -5.088,6.862 -6.826,10.146c-1.738,3.283 -2.607,6.173 -2.607,8.668Z" style="fill-rule:nonzero;"/><path d="M366.39,131.208c1.655,-2.101 3.31,-4.662 4.965,-7.683c1.82,-3.415 3.558,-6.666 5.213,-9.752c1.655,-3.087 2.978,-5.549 3.971,-7.388c2.483,-5.122 4.965,-10.212 7.447,-15.268c2.483,-5.057 5.13,-10.08 7.944,-15.071c2.482,-4.991 5.337,-10.442 8.564,-16.352c3.227,-5.91 6.743,-11.821 10.55,-17.731c3.806,-5.91 7.86,-11.558 12.163,-16.943c4.303,-5.385 8.854,-10.047 13.653,-13.987c3.475,-2.89 7.364,-5.451 11.667,-7.684c4.302,-2.233 8.936,-3.349 13.901,-3.349c4.633,0 8.15,0.952 10.549,2.857c2.4,1.904 4.096,3.776 5.089,5.614c0.828,1.839 1.283,3.711 1.365,5.615c0.083,1.905 0.125,3.514 0.125,4.827c-0,4.071 -0.29,8.241 -0.869,12.51c-0.579,4.269 -1.448,8.701 -2.607,13.298c-1.158,4.203 -2.358,8.439 -3.599,12.707c-1.241,4.269 -2.441,8.307 -3.599,12.116c-2.483,8.275 -4.965,16.615 -7.447,25.021c-2.483,8.405 -4.799,16.877 -6.951,25.414c-2.151,8.537 -3.889,17.008 -5.213,25.414c-1.324,8.406 -1.986,16.746 -1.986,25.02c0,2.627 0.125,5.549 0.373,8.767c0.248,3.218 0.744,6.403 1.489,9.555c0.745,3.152 1.779,6.173 3.103,9.062c1.324,2.89 3.144,5.385 5.461,7.487c2.813,-0 5.254,0.689 7.323,2.068c2.069,1.379 3.103,2.923 3.103,4.63c-0,1.839 -1.034,3.513 -3.103,5.024c-2.069,1.51 -4.675,2.265 -7.819,2.265c-2.152,0 -4.013,-0.328 -5.585,-0.985c-1.573,-0.656 -2.938,-1.379 -4.096,-2.167c-0.993,-0.788 -1.945,-1.641 -2.855,-2.561c-0.91,-0.919 -1.779,-1.839 -2.606,-2.758c-2.814,-3.283 -5.089,-6.862 -6.827,-10.737c-1.737,-3.874 -3.103,-7.815 -4.096,-11.821c-0.993,-4.005 -1.696,-8.044 -2.11,-12.116c-0.413,-4.071 -0.62,-8.077 -0.62,-12.017c-0,-8.537 0.579,-16.976 1.737,-25.316c1.159,-8.34 2.814,-16.713 4.965,-25.119c1.82,-8.274 4.013,-16.516 6.578,-24.724c2.565,-8.209 5.089,-16.385 7.571,-24.528c2.152,-6.436 4.138,-12.838 5.958,-19.208c1.82,-6.37 3.641,-12.773 5.461,-19.209c0.331,-1.839 0.621,-3.612 0.869,-5.319c0.248,-1.707 0.372,-3.481 0.372,-5.319l0,-1.379c0,-0.657 -0.083,-1.314 -0.248,-1.97c-2.813,0.262 -5.751,1.477 -8.812,3.644c-3.062,2.167 -6.082,4.827 -9.061,7.979c-2.979,3.152 -5.916,6.666 -8.812,10.54c-2.896,3.875 -5.544,7.618 -7.943,11.23c-2.4,3.611 -4.551,6.993 -6.454,10.146c-1.904,3.152 -3.352,5.582 -4.345,7.289c-5.957,10.244 -11.418,20.193 -16.383,29.847c-4.964,9.653 -9.102,17.567 -12.411,23.74c-0.993,2.232 -2.483,5.253 -4.469,9.062c-1.985,3.809 -4.344,7.552 -7.074,11.23c-2.731,3.677 -5.71,6.862 -8.937,9.554c-3.227,2.693 -6.743,4.039 -10.549,4.039c-1.986,0 -3.683,-0.295 -5.089,-0.886c-1.407,-0.591 -2.524,-1.281 -3.351,-2.069c-0.828,-0.788 -1.448,-1.609 -1.862,-2.463c-0.414,-0.853 -0.703,-1.543 -0.869,-2.068c-0.496,-1.182 -0.745,-2.496 -0.745,-3.94c0,-5.517 0.373,-10.869 1.118,-16.057c0.744,-5.188 1.613,-10.474 2.606,-15.859c1.324,-6.83 2.606,-13.659 3.848,-20.489c1.241,-6.83 2.523,-13.725 3.847,-20.686c0.828,-3.809 1.531,-7.65 2.11,-11.525c0.579,-3.874 0.869,-7.782 0.869,-11.722l-0,-1.773c-1.489,0.657 -3.02,1.773 -4.592,3.349c-1.573,1.576 -3.145,3.316 -4.717,5.221c-1.572,1.904 -2.979,3.743 -4.22,5.516c-1.241,1.773 -2.192,3.251 -2.854,4.433c-4.303,6.698 -8.44,14.283 -12.412,22.754c-3.972,8.472 -7.861,17.107 -11.667,25.907c-3.972,9.063 -7.736,17.862 -11.294,26.399c-3.558,8.537 -6.992,16.155 -10.302,22.853c-1.655,3.415 -3.227,6.535 -4.716,9.358c-1.49,2.824 -2.979,5.287 -4.469,7.388c-0.827,1.051 -1.572,2.036 -2.234,2.955c-0.662,0.92 -1.406,1.708 -2.234,2.365c-0.827,0.656 -1.903,1.313 -3.227,1.97c-1.324,0.656 -2.979,0.985 -4.964,0.985c-0.993,-0 -1.904,-0.066 -2.731,-0.197c-0.827,-0.132 -1.655,-0.329 -2.482,-0.591l3.475,0.591c-3.806,-1.445 -6.164,-2.791 -7.075,-4.039c-0.91,-1.248 -1.613,-3.316 -2.11,-6.206c-0.165,-1.445 -0.248,-2.889 -0.248,-4.334l0,-3.152c0,-8.669 0.372,-17.337 1.117,-26.005c0.745,-8.669 1.117,-17.337 1.117,-26.006c0,-2.626 -0.083,-5.877 -0.248,-9.752c-0.165,-3.874 -0.538,-7.847 -1.117,-11.919c-0.579,-4.071 -1.531,-7.88 -2.855,-11.426c-1.324,-3.546 -3.144,-6.239 -5.461,-8.078c-0.662,-0.394 -1.406,-0.656 -2.234,-0.788c-0.331,0 -0.662,0.132 -0.993,0.394c-0.662,0 -1.489,0.132 -2.482,0.394c-0.331,0.132 -0.828,0.263 -1.49,0.394c-0.661,0.132 -1.406,0.197 -2.234,0.197c-2.978,0 -5.047,-0.656 -6.205,-1.97c-1.159,-1.313 -1.738,-2.495 -1.738,-3.546c-0,-1.97 0.827,-3.415 2.482,-4.334c1.655,-0.919 3.227,-1.576 4.717,-1.97c1.324,-0.263 2.647,-0.427 3.971,-0.493c1.324,-0.065 2.4,-0.098 3.227,-0.098c7.944,-0 14.108,1.904 18.494,5.713c4.385,3.809 7.695,8.471 9.929,13.988c2.234,5.516 3.599,11.295 4.096,17.337c0.496,6.041 0.744,11.36 0.744,15.957c0,6.173 -0.248,12.281 -0.744,18.322c-0.497,6.042 -1.076,12.215 -1.738,18.519c0,0.788 -0.165,1.839 -0.496,3.152c0.496,-1.444 1.034,-2.856 1.613,-4.235c0.579,-1.38 1.2,-2.726 1.862,-4.039c2.648,-5.91 5.13,-11.854 7.447,-17.829c2.317,-5.976 4.634,-11.92 6.95,-17.83c0.662,-1.576 1.614,-3.907 2.855,-6.994c1.241,-3.086 2.731,-6.632 4.468,-10.638c1.738,-4.006 3.724,-8.275 5.958,-12.806c2.234,-4.531 4.592,-9.029 7.074,-13.495c1.655,-3.021 3.765,-6.633 6.33,-10.835c2.565,-4.203 5.544,-8.209 8.937,-12.018c3.392,-3.809 7.198,-7.092 11.418,-9.85c4.22,-2.759 8.73,-4.138 13.529,-4.138c2.482,0 4.634,0.361 6.454,1.084c1.82,0.722 3.268,1.609 4.344,2.659c1.076,1.051 1.945,2.135 2.606,3.251c0.662,1.117 1.159,2.134 1.49,3.054c0.331,1.051 0.538,2.101 0.62,3.152c0.083,1.051 0.207,2.101 0.373,3.152l-0,4.728c-0,4.729 -0.331,9.654 -0.993,14.776c-0.662,5.122 -1.531,10.277 -2.607,15.465c-1.075,5.188 -2.234,10.343 -3.475,15.465c-1.241,5.123 -2.441,10.114 -3.599,14.973c-0.828,3.415 -1.738,6.961 -2.731,10.639c-0.993,3.677 -1.737,7.42 -2.234,11.229Z" style="fill-rule:nonzero;"/><path d="M556.784,211.391c1.986,0.788 3.599,1.872 4.84,3.251c1.242,1.379 1.862,2.988 1.862,4.826c0,1.445 -0.91,2.923 -2.73,4.433c-1.821,1.511 -4.138,2.266 -6.951,2.266c-2.151,-0 -3.847,-0.361 -5.089,-1.084c-1.241,-0.722 -2.275,-1.412 -3.102,-2.068c-2.317,-2.364 -3.848,-5.123 -4.593,-8.275c-0.744,-3.152 -1.282,-6.173 -1.613,-9.062c-0.497,-4.466 -0.786,-8.734 -0.869,-12.806c-0.083,-4.071 -0.124,-6.698 -0.124,-7.88c-0,-5.516 0.165,-11.033 0.496,-16.549c0.331,-5.516 0.662,-11.033 0.993,-16.549l-4.22,-3.94l-3.227,-3.152c-0.331,-0.263 -0.538,-0.525 -0.62,-0.788c-0.083,-0.263 -0.207,-0.526 -0.373,-0.788c-0.496,-1.051 -0.744,-1.839 -0.744,-2.364c-0,-2.364 1.158,-3.94 3.475,-4.729c2.317,-0.788 4.634,-1.182 6.95,-1.182c0.828,-9.325 1.945,-19.142 3.351,-29.452c1.407,-10.311 3.683,-19.997 6.827,-29.059c0.496,-1.445 1.117,-3.12 1.862,-5.024c0.744,-1.905 1.696,-3.743 2.854,-5.516c1.159,-1.773 2.607,-3.284 4.344,-4.532c1.738,-1.247 3.765,-1.871 6.082,-1.871c2.813,-0 4.923,0.689 6.33,2.068c1.407,1.379 2.11,2.66 2.11,3.842c-0,1.051 -0.248,1.937 -0.745,2.66c-0.496,0.722 -0.993,1.28 -1.489,1.674c-1.49,1.051 -2.855,3.12 -4.096,6.206c-1.241,3.087 -2.4,6.698 -3.475,10.836c-1.076,4.137 -1.986,8.57 -2.731,13.298c-0.745,4.728 -1.406,9.325 -1.986,13.79c-0.579,4.466 -1.034,8.537 -1.365,12.215c-0.331,3.678 -0.579,6.501 -0.745,8.471c6.785,-0.656 14.15,-1.904 22.093,-3.743c7.943,-1.839 15.928,-4.137 23.954,-6.895c8.027,-2.758 15.722,-6.042 23.086,-9.851c7.364,-3.808 13.901,-8.011 19.61,-12.608c5.71,-4.597 10.26,-9.588 13.653,-14.973c3.392,-5.385 5.089,-11.098 5.089,-17.14c-0,-7.092 -1.655,-13.364 -4.965,-18.814c-3.31,-5.451 -8.026,-10.048 -14.149,-13.791c-6.123,-3.743 -13.487,-6.567 -22.093,-8.471c-8.605,-1.905 -18.203,-2.857 -28.795,-2.857c-13.073,0 -26.436,1.478 -40.089,4.433c-13.653,2.955 -26.023,7.158 -37.111,12.609c-11.087,5.45 -20.189,11.951 -27.305,19.503c-7.116,7.552 -10.674,15.86 -10.674,24.922c-0,3.809 0.62,7.486 1.862,11.033c1.241,3.546 3.02,7.223 5.337,11.032c0.496,0.92 0.744,1.642 0.744,2.167c0,1.051 -0.62,2.299 -1.862,3.743c-1.241,1.445 -3.433,2.168 -6.578,2.168c-2.151,-0 -3.971,-0.362 -5.461,-1.084c-1.489,-0.722 -2.399,-1.609 -2.73,-2.66c-2.317,-3.808 -4.055,-7.913 -5.213,-12.313c-1.159,-4.4 -1.738,-8.635 -1.738,-12.707c0,-7.749 1.862,-14.973 5.585,-21.671c3.724,-6.698 8.771,-12.838 15.143,-18.42c6.371,-5.582 13.818,-10.54 22.34,-14.874c8.523,-4.335 17.666,-7.979 27.43,-10.934c9.764,-2.956 19.9,-5.221 30.408,-6.797c10.509,-1.576 20.893,-2.364 31.154,-2.364c12.411,-0 24.078,1.182 35,3.546c10.922,2.364 20.397,5.844 28.423,10.441c8.026,4.597 14.356,10.343 18.989,17.239c4.634,6.895 6.951,14.808 6.951,23.739c-0,7.749 -2.069,14.973 -6.206,21.671c-4.137,6.699 -9.639,12.839 -16.507,18.421c-6.868,5.582 -14.77,10.638 -23.706,15.169c-8.937,4.532 -18.163,8.406 -27.678,11.624c-9.516,3.218 -19.031,5.812 -28.547,7.782c-9.515,1.97 -18.328,3.283 -26.437,3.94l-0.248,1.773c3.475,3.94 7.695,8.439 12.66,13.495c4.965,5.057 10.426,10.212 16.383,15.465c5.958,5.254 12.288,10.442 18.99,15.564c6.702,5.122 13.487,9.654 20.355,13.594c6.868,3.94 13.777,7.125 20.727,9.555c6.951,2.43 13.57,3.644 19.859,3.644c4.468,0 8.481,-0.623 12.039,-1.871c3.558,-1.248 6.744,-2.955 9.557,-5.122c2.813,-2.167 5.378,-4.696 7.695,-7.585c2.317,-2.89 4.551,-5.911 6.703,-9.063c0.496,-0.656 1.365,-1.412 2.606,-2.265c1.241,-0.854 3.02,-1.281 5.337,-1.281c3.475,0 5.792,0.788 6.95,2.364c1.159,1.576 1.738,2.824 1.738,3.743c0,0.526 -0.165,1.183 -0.496,1.971c-1.655,3.152 -3.807,6.567 -6.454,10.244c-2.648,3.678 -5.875,7.06 -9.681,10.146c-3.807,3.087 -8.399,5.68 -13.777,7.782c-5.379,2.101 -11.626,3.152 -18.742,3.152c-6.785,0 -13.694,-1.018 -20.727,-3.054c-7.033,-2.035 -14.025,-4.761 -20.976,-8.175c-6.95,-3.415 -13.777,-7.356 -20.479,-11.821c-6.702,-4.466 -13.156,-9.062 -19.362,-13.791c-6.206,-4.728 -11.998,-9.489 -17.376,-14.283c-5.379,-4.794 -10.219,-9.161 -14.522,-13.101c-0.165,3.152 -0.289,6.304 -0.372,9.456c-0.083,3.153 -0.124,6.305 -0.124,9.457c-0,3.809 0.124,7.519 0.372,11.131c0.248,3.612 0.538,7.256 0.869,10.934l-0,2.561Z" style="fill-rule:nonzero;"/></svg>