<?xml version="1.0" encoding="UTF-8" standalone="no"?><!DOCTYPE svg PUBLIC "-//W3C//DTD SVG 1.1//EN" "http://www.w3.org/Graphics/SVG/1.1/DTD/svg11.dtd"><svg width="100%" height="100%" viewBox="0 0 100 84" version="1.1" xmlns="http://www.w3.org/2000/svg" xmlns:xlink="http://www.w3.org/1999/xlink" xml:space="preserve" xmlns:serif="http://www.serif.com/" style="fill-rule:evenodd;clip-rule:evenodd;stroke-linejoin:round;stroke-miterlimit:2;"><path d="M100,83.333l-100,0l0,-83.333l100,0l0,83.333Zm-4.167,-79.166l-91.666,-0l-0,75l91.666,-0l0,-75Zm-4.166,66.666l-79.167,0l16.667,-31.216l12.5,12.7l20.887,-31.484l29.113,50Zm-49.367,-11.937l-12.125,-12.317l-10.725,20.088l64.971,-0l-22.096,-37.95l-20.025,30.179Zm-19.383,-46.396c5.75,-0 10.416,4.667 10.416,10.417c0,5.75 -4.666,10.416 -10.416,10.416c-5.75,0 -10.417,-4.666 -10.417,-10.416c0,-5.75 4.667,-10.417 10.417,-10.417Zm-0,4.167c3.45,-0 6.25,2.8 6.25,6.25c-0,3.45 -2.8,6.25 -6.25,6.25c-3.45,-0 -6.25,-2.8 -6.25,-6.25c-0,-3.45 2.8,-6.25 6.25,-6.25Z" style="fill:#fff;"/></svg>